<svg xmlns="http://www.w3.org/2000/svg" width="1903.37" height="1899.988" viewBox="0 0 1903.37 1899.988"><defs><style>.a{fill:#fff;}</style></defs><g transform="translate(0 1201.615) rotate(-60)"><path class="a" d="M679.686,1395.55a3.05,3.05,0,0,1-.456-2.872l52.085-147.765a3.057,3.057,0,0,1,2.65-2.03l2.238-.171a3.115,3.115,0,0,1,2.935,1.605l73.93,138.279a3.056,3.056,0,0,1-2.472,4.48l-15.682,1.178a3,3,0,0,1-2.93-1.61l-25.156-47.167a.939.939,0,0,0-.7-.52,8.878,8.878,0,0,0-2.569-.224,14.657,14.657,0,0,0-2.974.537q-1.691.494-3.111.959A23.687,23.687,0,0,0,755,1341.5l-17.868,10.172c-7.127,4.258-13.176,6.534-18.441,6.929a14.962,14.962,0,0,1-11.048-3.169q-.6,3.312-1.137,6.288-1.062,5.885-1.971,11.092c-.6,3.387-1.093,6.705-1.471,9.877q-.575,4.794-1.108,10.05a3.053,3.053,0,0,1-2.813,2.735l-16.8,1.264c-.078.007-.156.01-.229.01A3.072,3.072,0,0,1,679.686,1395.55Zm46.464-102.2c-2.75,7.944-5.246,15.364-7.415,22.045-2.14,6.585-3.982,12.524-5.483,17.656-1.364,4.682-2.386,8.4-3.038,11.053a1.7,1.7,0,0,0,1.286.319,5.781,5.781,0,0,0,2.006-.539c.913-.42,2.284-1.152,4.112-2.179q2.873-1.618,8.066-4.619,5.23-3.015,14.069-8.005a29.83,29.83,0,0,1,12.627-4.238,19.542,19.542,0,0,1,7.3.832l-26.929-50.8C730.429,1281.183,728.216,1287.375,726.15,1293.351Zm111.693,90.029a3.071,3.071,0,0,1-1.491-1.8L795.4,1248.573a3.042,3.042,0,0,1,.854-3.145l10.23-9.389a21.561,21.561,0,0,1,8.625-5.1,18.132,18.132,0,0,1,7.32-.71,32.571,32.571,0,0,1,7.518,1.9,60.407,60.407,0,0,1,18.656,11.341,157.428,157.428,0,0,1,17.2,17.55c5.461,6.48,10.875,13.481,16.1,20.808q7.755,10.9,15.152,21.237c4.892,6.839,9.709,13.151,14.32,18.758a79.923,79.923,0,0,0,13.161,13.088c.59.373,1.742,1.025,3.27,1.84a42.07,42.07,0,0,0,4.968,2.2,41.286,41.286,0,0,0,5.228,1.588,5.905,5.905,0,0,0,2.95.132c.253-.078.276-.132.322-.234a6.107,6.107,0,0,0-.417-2.4c-6.908-22.428-13.325-41.667-19.073-57.182s-10.806-28.413-15.022-38.329c-4.914-11.346-9.423-20.7-13.4-27.786a3.055,3.055,0,0,1,1.774-4.409l16.643-5.1a3.056,3.056,0,0,1,3.821,2.02l41.23,133.9a3.058,3.058,0,0,1-.885,3.174l-9.375,8.345a.149.149,0,0,1-.037.031,24.759,24.759,0,0,1-8.73,5.1,21.547,21.547,0,0,1-13.144-.161,52.39,52.39,0,0,1-13.878-7.464,87.8,87.8,0,0,1-13.91-13.085c-4.6-5.258-9.267-11.112-13.874-17.392-4.592-6.249-9.267-12.837-13.9-19.578-4.568-6.651-9.257-13.073-13.944-19.09a208.05,208.05,0,0,0-14.105-16.372,66.641,66.641,0,0,0-13.737-11.2,25.26,25.26,0,0,0-4.011-1.92q-2.441-.933-4.924-1.671a24.029,24.029,0,0,0-4.433-.891,7.4,7.4,0,0,0-2.835.136,1.184,1.184,0,0,0-.385.173,3.862,3.862,0,0,0,.263,1.75c7.166,23.284,13.747,42.962,19.568,58.485,5.8,15.491,10.855,28.286,15.032,38.041a261.538,261.538,0,0,0,12.988,26.5,3.052,3.052,0,0,1-1.745,4.455l-16.645,5.1a3.077,3.077,0,0,1-2.335-.222Zm-296.751-5.37-50.709-10.558a3.049,3.049,0,0,1-2.369-3.609l29.746-142.212a3.047,3.047,0,0,1,3.618-2.364l41.34,8.6c39.476,8.215,62.375,29.916,68.057,64.5a79.214,79.214,0,0,1-18.666,63.875c-14.156,15.684-32.183,23.711-52.832,23.711A89.3,89.3,0,0,1,541.092,1378.009ZM537.01,1232.63l-26.859,128.4c-.222,1.076.146,1.152.654,1.261l30.546,6.359c14.827,3.077,30.716-1.694,43.612-13.1a68.121,68.121,0,0,0,22.6-56.663c-2.081-24.373-11.726-54.916-45.876-62.024l-23.623-4.921a2.133,2.133,0,0,0-.4-.05C537.315,1231.89,537.127,1232.064,537.01,1232.63Zm-89.646,120.457L354.2,1309.855a3.042,3.042,0,0,1-1.481-4.053l61.4-131.7a3.06,3.06,0,0,1,4.063-1.479l93.169,43.231a3.04,3.04,0,0,1,1.484,4.053l-.354.756c-2.615,5.614-7.8,12.571-13.8,13.686a8.431,8.431,0,0,1-7.644-2.379l-2.572-2.557c-10.3-10.267-25.858-25.788-56.353-39.934a2.539,2.539,0,0,0-1.583-.368c-.159.049-.315.359-.356.454l-20.005,42.906a25.818,25.818,0,0,1,11.736,2.528c7.073,3.279,13.747,9.487,20.2,15.489a20.333,20.333,0,0,0,4.807,3.209c6.568,3.045,15.608,2.874,27.64-.547a4.215,4.215,0,0,1,3.247.139,3.968,3.968,0,0,1,2.062,2.264c.129.371,1.167,3.6-2.818,5.051-12.924,3.945-23.016,7.022-35.528,1.205a47.173,47.173,0,0,1-8.083-4.729,55.272,55.272,0,0,0-9.142-5.551c-6.625-3.072-12.422-3.692-17.206-1.859-4.963,1.9-7.735,6.014-9.187,9.133L375,1307.908c-.537,1.154-.422,1.581-.405,1.625.044.134.337.466,1.154.844l3.018,1.4c29.262,12.729,51.673,14.747,65.059,15.952l2.428.219a8.653,8.653,0,0,1,7.09,4.316c2.9,5.016,1.093,12.89-1.559,18.587l-.349.747a3.053,3.053,0,0,1-1.725,1.586,3.066,3.066,0,0,1-2.343-.1Zm558.41-28.73a3.062,3.062,0,0,1-1.906-1.359l-77.036-123.261a3.045,3.045,0,0,1,.976-4.2l35.826-22.286c34.218-21.279,65.791-21.393,93.86-.324a79.249,79.249,0,0,1,30.765,59.02c.822,27.073-11.707,49.436-36.228,64.69l-43.948,27.34a3.061,3.061,0,0,1-1.62.464A3.134,3.134,0,0,1,1005.774,1324.358ZM969.121,1180.45l-20.473,12.734c-.534.334-.69.578-.286,1.227l69.553,111.288s0,0,0,0a1.461,1.461,0,0,0,.678.668,1.009,1.009,0,0,0,.659-.21l26.473-16.47c12.844-7.988,21.025-22.4,22.438-39.539a68.12,68.12,0,0,0-22.936-56.519c-12.444-10.948-29.352-21.547-48.159-21.547A52.167,52.167,0,0,0,969.121,1180.45ZM319.909,1291.655,255.28,1246.6a3.053,3.053,0,0,1-.754-4.25l83.412-119.081a3.063,3.063,0,0,1,4.26-.749l12.112,8.442a3.055,3.055,0,0,1,.751,4.25L276.412,1247.49a3.282,3.282,0,0,0-.51.927c.049.015.219.2.61.478l35.526,24.766c5.6,3.921,10.309,6.69,15.4,3.933,2.206-1.193,8.92-4.828,6.915-23.989-2.716-18.844,3.826-26.917,18.341-39.651.822-.754,3.479-3.206,6.1-1.369a3.6,3.6,0,0,1,1.566,2.774c.1,1.837-1.171,3.177-2.281,4.141-10.667,9.464-14.993,19.383-12.827,29.455,4.87,20.864,7.32,31.363-1.1,41.289a15.334,15.334,0,0,1-11.919,5.8C328.324,1296.047,324.113,1294.59,319.909,1291.655Zm-78.327-62.6-10.948-11.26a3.052,3.052,0,0,1-.637-3.279l20.225-49.47a.919.919,0,0,0-.044-.866,8.558,8.558,0,0,0-1.471-2.11,14.554,14.554,0,0,0-2.323-1.95q-1.453-.97-2.723-1.762a22.42,22.42,0,0,0-2.554-1.083l-19.275-7.186c-7.842-2.738-13.469-5.919-17.141-9.694a14.959,14.959,0,0,1-4.631-10.506q-2.939,1.658-5.571,3.157-5.215,2.954-9.808,5.587c-3,1.715-5.878,3.465-8.547,5.195q-4.059,2.628-8.445,5.585a3.05,3.05,0,0,1-3.909-.4l-11.731-12.07a3.048,3.048,0,0,1,1.127-4.987l147.148-54.66a3.075,3.075,0,0,1,3.264.739l1.564,1.608a3.058,3.058,0,0,1,.634,3.275L246.613,1228.08a3.059,3.059,0,0,1-2.252,1.845,2.952,2.952,0,0,1-.583.059A3.064,3.064,0,0,1,241.582,1229.053Zm18.131-124.715c-8.025,3.033-15.335,5.866-21.721,8.427-6.48,2.587-12.239,4.973-17.111,7.1-4.573,1.986-8.006,3.545-10.458,4.743A1.69,1.69,0,0,0,211,1125.8c.081.066.154.134.225.2a5.068,5.068,0,0,0,1.471.993q1.369.64,4.311,1.752,3.089,1.171,8.728,3.23,5.666,2.068,15.169,5.658a29.854,29.854,0,0,1,11.346,6.964,19.575,19.575,0,0,1,4.033,6.134l21.889-53.159C271.893,1099.807,265.708,1102.071,259.713,1104.338Zm923.26,89.985-89.8-87.677c-16.653-16.257-16.931-19.868-11.019-32.868.329-.81.661-1.605.978-2.359,2.486-5.968,3.418-8.2-.673-12.993-2.936-2.867-1.1-5.222-.464-5.871,2.716-2.767,5.085-.459,6.095.517,6.907,7.952,6.912,10.7,5.941,17.514l-.166,1.181c-1.176,6.227,1.813,9.455,11.431,18.744l3.091,3L1197,1180.025a3.042,3.042,0,0,1,.046,4.314l-9.75,9.935a3.061,3.061,0,0,1-4.326.049Zm.124-59.676a91.841,91.841,0,0,1-27.339-13.53,88.887,88.887,0,0,1-21.891-22.133,76.5,76.5,0,0,1-11.614-26.539,68.523,68.523,0,0,1-.115-28.477,77.312,77.312,0,0,1,25.61-41.9,69.511,69.511,0,0,1,14.837-9.213,85.8,85.8,0,0,1,16.421-5.529,170.158,170.158,0,0,1,17.67-3.023,3.056,3.056,0,0,1,3.419,3.155l-.727,17.653a3.042,3.042,0,0,1-1.044,2.174,3.134,3.134,0,0,1-2.3.737,128.989,128.989,0,0,0-15.147-.532,62.045,62.045,0,0,0-14.3,2.018,48.635,48.635,0,0,0-12.8,5.426,35.719,35.719,0,0,0-10.367,9.843,53.085,53.085,0,0,0-9.335,20.178,44.47,44.47,0,0,0,.249,19.566,50.7,50.7,0,0,0,8.684,18.148,72.872,72.872,0,0,0,16.228,15.7,91.452,91.452,0,0,0,22.767,11.758,81.641,81.641,0,0,0,25.093,4.809,57.94,57.94,0,0,0,23.612-4.172,42.422,42.422,0,0,0,18.68-15.067,50.836,50.836,0,0,0,8.062-17.224,70.326,70.326,0,0,0,2.174-19.278,76.061,76.061,0,0,0-10.4-36.294,3.053,3.053,0,0,1,1.5-4.4l2.9-1.144a3.064,3.064,0,0,1,3.614,1.062,100.909,100.909,0,0,1,11.826,21.532,80.9,80.9,0,0,1,5.507,22.945,67.829,67.829,0,0,1-2.128,23.394,70.17,70.17,0,0,1-11.116,22.8,67.061,67.061,0,0,1-49.633,28.674q-3,.253-6.031.254A79.142,79.142,0,0,1,1183.1,1134.647ZM161.566,1104.411a81.507,81.507,0,0,1-23.372-3.635,68.266,68.266,0,0,1-20.888-10.855,70.248,70.248,0,0,1-16.926-18.915,66.7,66.7,0,0,1-7.72-56.7,76.793,76.793,0,0,1,13.754-25.192,91.625,91.625,0,0,1,22.931-20.09,88.99,88.99,0,0,1,28.845-11.792,76.45,76.45,0,0,1,29.016-.634,68.733,68.733,0,0,1,26.451,10.714,72.9,72.9,0,0,1,21.081,22.255,71.972,71.972,0,0,1,8.042,17.294,69.125,69.125,0,0,1,2.9,17.192,84.885,84.885,0,0,1-1.115,17.253,169.255,169.255,0,0,1-3.906,17.453,3.063,3.063,0,0,1-4.226,1.957l-16.089-7.374a3.051,3.051,0,0,1-1.43-4.194,126.256,126.256,0,0,0,6.246-13.778,62.1,62.1,0,0,0,3.572-13.971,48.675,48.675,0,0,0-.173-13.876,35.739,35.739,0,0,0-5.192-13.305,53.231,53.231,0,0,0-15.159-16.279,44.781,44.781,0,0,0-18.239-7.2,50.969,50.969,0,0,0-20.125,1.12,72.8,72.8,0,0,0-20.74,9.006,91.569,91.569,0,0,0-19.544,16.54,81.151,81.151,0,0,0-13.993,21.335,58.441,58.441,0,0,0-5.1,23.37,42.352,42.352,0,0,0,6.873,22.965,50.961,50.961,0,0,0,12.915,13.983,71,71,0,0,0,17.045,9.328,76.538,76.538,0,0,0,37.6,4.192,3.1,3.1,0,0,1,2.464.722,3.055,3.055,0,0,1,1.044,2.34l-.042,3.109a3.048,3.048,0,0,1-2.357,2.928,101.713,101.713,0,0,1-23.28,2.745C162.345,1104.419,161.954,1104.419,161.566,1104.411ZM1194.66,975.895c-5.016-.791-9.106-3.05-11.511-6.363-.017-.024-.032-.049-.052-.073-7.049-10.358-3.594-19.007,3.97-37.961l1.923-4.821a28.178,28.178,0,0,1,2.008-4.494,4.139,4.139,0,0,1,7.617,3.006,29.3,29.3,0,0,1-1.613,4.643c-4.665,11.778-3.755,15.845,1.137,21.4,2.474,2.752,12.26,10.892,33.444-.92,6.422-3.938,26.178-15.24,39.005-19.432.1-.032.2-.061.307-.083a.987.987,0,0,0,.759-.537.969.969,0,0,0-.181-.918,3.173,3.173,0,0,1-.185-.3c-4.9-9.189-9.838-24.453-13.1-34.554-.812-2.516-1.5-4.633-2.013-6.129-7.385-23.131-20.1-23.858-23.833-23.543-7.352.717-10.79,3.04-15.389,14.647-1.444,3.643-2.037,5.148-3.811,5.914a4.073,4.073,0,0,1-3.157-.024,3.991,3.991,0,0,1-2.308-2.133c-.769-1.771-.176-3.277,1.266-6.912l1.886-4.79c7.478-19.032,10.889-27.72,23.1-30.27,3.962-.869,8.447.2,12.624,2.955,5.185,3.426,14.559,12.649,19.046,35.943,2.877,19.737,10.4,41.4,19.251,44.893l55.9,22.038a3.044,3.044,0,0,1,1.723,3.958l-4.816,12.158a3.063,3.063,0,0,1-3.967,1.715l-55.9-22.037c-8.674-3.392-29.057,7.259-44.714,19.566-15.513,11.336-27.1,13.773-34.2,13.773A27.353,27.353,0,0,1,1194.66,975.895ZM72.718,973.089C55.67,966.613,41.4,949.96,33.579,927.416c-12.422-35.818.978-59.279,16.226-68.487,16.445-9.96,36.057-8.047,46.644,4.548a21.921,21.921,0,0,1,3.987,7.044c2.013,5.8.937,11.014-2.877,13.937-6.444,5.151-15.533,1.264-19.339-3.413-6.3-7.064-15.6-5.893-19.317-5.056-5.365,1.374-11.333,6.817-15.12,13.844-5.456,10.121-6.117,22.448-1.864,34.7,4.719,13.61,13.859,23.382,25.739,27.525a39.229,39.229,0,0,0,34.018-4.309c17.4-11.058,22.5-29.4,15.145-54.5-10.155-35.3-5.966-54.811,13.181-61.421,17.536-6.027,40.569,14.337,51.356,45.446,10.233,29.506,4.819,54.306-14.137,64.714-6.773,3.614-12.759,2.428-16.04-3.16a9.662,9.662,0,0,1-.93-8.767c.959-2.335,3.4-5.466,9.631-7.093a20.615,20.615,0,0,0,13.056-10.687c4.375-8.362,4.478-20.1.278-32.2-3.294-9.506-8.908-18.163-15.394-23.75-4.887-4.214-12.548-8.611-21.259-5.6-12.651,4.365-18.858,12.529-10.731,39.7,8.979,30.4,14.388,63.556-13.542,79.081a48.6,48.6,0,0,1-23.765,6.52A44.283,44.283,0,0,1,72.718,973.089ZM1251.077,780.3c-13.473-12.278-20.608-32.99-19.576-56.826,1.637-37.865,22.738-54.772,40.313-57.746,18.941-3.233,36.5,5.726,41.711,21.327a21.936,21.936,0,0,1,1.113,8.013c-.266,6.137-3.187,10.589-7.818,11.91-7.869,2.432-14.906-4.514-16.723-10.26-3.252-8.881-12.346-11.2-16.1-11.785-5.47-.69-13.051,2.184-19.166,7.334-8.8,7.415-13.954,18.631-14.515,31.585-.623,14.384,4.284,26.827,13.807,35.035a39.234,39.234,0,0,0,33.22,8.464c20.261-3.909,31.756-19.095,34.161-45.136,3.558-36.553,14.674-53.064,34.882-52.293,18.531.8,32.446,28.211,31.024,61.094-1.349,31.2-15.523,52.273-36.985,55.006-7.613.891-12.756-2.413-13.759-8.82a9.676,9.676,0,0,1,2.364-8.491c1.754-1.82,5.18-3.819,11.573-3.069a20.633,20.633,0,0,0,16.082-5.156c7.149-6.176,11.568-17.05,12.119-29.838.842-19.493-7.635-40.059-23.284-40.735-13.413-.542-22.147,4.746-24.6,32.986-2.838,31.563-10.011,64.385-41.713,68.584a55.489,55.489,0,0,1-7.381.5A44.591,44.591,0,0,1,1251.077,780.3ZM9.614,784c-5-4.49-7.549-12.29-7.8-23.853l-1.8-85.271c-.242-11.431,1.967-19.263,6.759-23.941,3.592-3.506,8.6-5.121,14.825-4.882,13.583.627,19.981,8.774,24.041,15.806,8.384,15.106,13.956,19.224,27.135,20.071a4.686,4.686,0,0,1,2.918.951,4.4,4.4,0,0,1,1.64,3.45,3.844,3.844,0,0,1-1.078,2.757,5.172,5.172,0,0,1-3.772,1.43c-10.165-.454-21.9-2.43-34.977-20.288-3.243-4.45-9.7-6.151-15.708-4.143C14.016,668.694,9.5,676.326,9.714,686.5l.386,18.26a3.511,3.511,0,0,0,.656,2.337,3.926,3.926,0,0,0,2.589.559l135.8-2.847h.066a3.055,3.055,0,0,1,3.06,2.984l.281,13.276a3.058,3.058,0,0,1-2.994,3.116l-135.81,2.857a4,4,0,0,0-2.559.664,3.547,3.547,0,0,0-.559,2.367l.383,18.26c.215,10.121,5.075,17.536,13,19.832,6.168,1.789,12.378-.115,15.455-4.738,12.385-18.724,23.933-21.066,33.8-21.728a4.672,4.672,0,0,1,3.84.864,4.022,4.022,0,0,1,1.471,3.113c.042,1.64-.629,3.772-4.033,4.521a2.438,2.438,0,0,1-.378.059c-13,1.2-18.382,5.546-26.19,21.137-3.723,7.115-9.708,15.411-23.316,16.845q-1.285.11-2.494.11C17.036,788.344,12.835,786.882,9.614,784ZM1339.551,644.543c-10.589-13.654-16.721-16.892-29.875-15.708a4.341,4.341,0,0,1-5.175-3.662c-.337-1.937.812-4.289,4.146-4.875,10.126-1.088,22.02-.92,37.67,14.74,3.887,3.909,10.533,4.616,16.16,1.71,7.293-3.765,10.592-12,8.825-22.016l-3.165-17.987c-.383-2.189-.964-2.84-3.647-2.372L1230.7,617.826a3.067,3.067,0,0,1-3.543-2.481l-2.3-13.08a3.058,3.058,0,0,1,2.486-3.533l133.79-23.455a3.988,3.988,0,0,0,2.428-1.047,3.528,3.528,0,0,0,.19-2.423l-3.167-17.982c-1.757-9.974-7.693-16.567-15.879-17.631-6.358-.83-12.209,2-14.544,7.029-9.384,20.388-20.442,24.463-30.09,26.615a4.674,4.674,0,0,1-3.918-.266,4.028,4.028,0,0,1-1.94-2.855c-.285-1.625.054-3.826,3.289-5.085a2.487,2.487,0,0,1,.368-.115c12.666-3.162,17.321-8.276,22.66-24.875,2.591-7.593,7.239-16.7,20.473-20.193,6.134-1.481,11.329-.83,15.526,1.908,5.629,3.677,9.34,11,11.345,22.389l14.791,84.01c1.984,11.258,1,19.332-3.023,24.685-3.016,4.006-7.688,6.388-13.9,7.078a33.1,33.1,0,0,1-3.465.188C1350.88,656.706,1344.187,650.311,1339.551,644.543ZM2.021,624.941a3.045,3.045,0,0,1-.656-2.73L5.6,605.17a3.056,3.056,0,0,1,2.7-2.3l135.958-11.887a3.631,3.631,0,0,0,.208-.522c.034-.151.056-.232-.21-.527l-39.888-40.379L21.731,557.1a3,3,0,0,1-2.6-1.052,3.051,3.051,0,0,1-.647-2.725l3.921-15.767a3.064,3.064,0,0,1,2.694-2.306l135.783-12.4c.115-.02.2-.034.344-.6.039-.146.056-.227-.2-.51l-24.58-23.88a48.934,48.934,0,0,0-16.023-10.394,39.436,39.436,0,0,0-18.412-2.677l-63.922,6.685A3.052,3.052,0,0,1,34.8,487.7l3.963-15.952a3.05,3.05,0,0,1,2.667-2.3l60.508-6a39.68,39.68,0,0,1,19.183,2.669,42.459,42.459,0,0,1,15.718,11.136l41.8,47.689a3.053,3.053,0,0,1,.664,2.742L176.238,540a3.062,3.062,0,0,1-2.65,2.3l-50.8,5.38,39.093,44.688a3.059,3.059,0,0,1,.661,2.742l-3.382,13.6a3.05,3.05,0,0,1-2.667,2.3L4.634,625.982c-.1.01-.2.015-.3.015A3.058,3.058,0,0,1,2.021,624.941ZM1250.66,534.123c-28.106-2.54-51.322-18.912-62.063-43.8a70.122,70.122,0,0,1-4.955-17.636c-10.338.7-14.964.212-18.017-2.694-1.671-1.593-2.882-3.9-4.323-7.122l-.788-1.608c-1.989-4.1-2.659-5.5-6.969-5.6a3.823,3.823,0,0,1-1.366-.088,2.964,2.964,0,0,1-2.233-2.664,3.768,3.768,0,0,1,.642-2.242,3.556,3.556,0,0,1,2.754-1.03c7.593.09,9.074,1.366,12.3,5.182l.547.642c2.679,3.462,5.766,3.377,15.1,2.667l1.677-.125c.1-1.935.253-3.872.5-5.812,5.539-41.926,43.46-71.6,86.237-67.652a.09.09,0,0,0,.022,0,75.419,75.419,0,0,1,61.826,44.807,71.616,71.616,0,0,1,5.167,18.236c.8-.056,1.564-.11,2.386-.166,16.523-1.164,18.758.544,22.887,9.782l.788,1.608c1.994,4.111,2.662,5.5,6.971,5.6,3.194-.244,3.558,2.255,3.6,2.755a3.77,3.77,0,0,1-.642,2.242,3.549,3.549,0,0,1-2.757,1.027c-7.6-.085-9.091-1.4-12.3-5.18l-.552-.644c-2.688-3.462-5.76-3.372-15.094-2.664l-3.033.224c-.578.042-1.12.078-1.693.117-.085,1.381-.193,2.762-.354,4.15-5.158,39.012-39.405,68.1-78.261,68.1A78.447,78.447,0,0,1,1250.66,534.123ZM1196.412,471.8a49.385,49.385,0,0,0,3.955,19.351,44.8,44.8,0,0,0,6.356,10.816c19.2,23.409,56.594,23.167,86.971-.581,13.33-10.3,22.579-23.916,26.832-37.912-68.436,4.809-69.346,4.765-70.187,4.719-.079,0-.158-.008-.292-.008C1248.875,468.181,1243.456,468.488,1196.412,471.8Zm28.672-54.035h0c-13.74,10.719-22.962,24.741-26.747,39.161,72.859-5.126,73.789-5.08,74.645-5.034.749.039,1.442.08,50.114-3.335a47.507,47.507,0,0,0-3.645-20.781,45.8,45.8,0,0,0-6.544-10.733c-9.348-11.4-23.5-17.079-39.1-17.079C1257.871,399.96,1240.422,405.9,1225.084,417.76ZM194.33,479.361,68.161,406.873a3.04,3.04,0,0,1-1.12-4.167l51.278-88.828a3.069,3.069,0,0,1,4.172-1.127l.72.412c5.385,3.1,11.883,8.857,12.475,14.913a8.412,8.412,0,0,1-3.038,7.391l-2.767,2.325c-11.153,9.34-28.008,23.455-44.8,52.537-.859,1.491-.449,1.728-.085,1.937L126.1,415.876a25.924,25.924,0,0,1,3.543-11.436c3.884-6.734,10.665-12.834,17.223-18.734a20.2,20.2,0,0,0,3.621-4.489c3.614-6.263,4.223-15.267,1.862-27.52a4.072,4.072,0,0,1,2.855-5.068,3.719,3.719,0,0,1,2.835.346,4.53,4.53,0,0,1,1.974,2.9c2.813,13.178,5,23.47-1.891,35.4a46.519,46.519,0,0,1-5.429,7.63,54.89,54.89,0,0,0-6.334,8.6c-9.391,16.277.342,24.212,4.965,26.866l47.04,27.03c1.117.637,1.544.556,1.6.547.137-.032.493-.293.939-1.076l1.667-2.882c15.254-27.967,19.219-50.058,21.593-63.26l.432-2.4a8.626,8.626,0,0,1,4.924-6.671,9.638,9.638,0,0,1,1.417-.471L138.263,299.73a3.042,3.042,0,0,1-.918-3.123l3.794-13.342a21.682,21.682,0,0,1,4.672-8.847,18.107,18.107,0,0,1,5.868-4.424,32.586,32.586,0,0,1,7.4-2.308,60.6,60.6,0,0,1,21.854-.068,157.347,157.347,0,0,1,23.848,5.983c8.137,2.7,16.423,5.846,24.631,9.335q12.338,5.245,24.053,10.192c7.7,3.255,15.115,6.119,22.04,8.513a80.013,80.013,0,0,0,18.08,4.292c.708,0,2.02-.037,3.748-.146a41.922,41.922,0,0,0,5.39-.71,41.361,41.361,0,0,0,5.295-1.381,5.892,5.892,0,0,0,2.576-1.422c.173-.2.168-.259.149-.368a6.011,6.011,0,0,0-1.615-1.832c-17.731-15.582-33.288-28.63-46.237-38.778C249.9,251.1,238.83,242.75,230,236.465c-10.1-7.083-18.851-12.7-25.99-16.689a3.051,3.051,0,0,1-.8-4.682l11.509-13.032a3.069,3.069,0,0,1,4.319-.273l105.344,92.6a3.049,3.049,0,0,1,.91,3.17l-3.618,12a.155.155,0,0,0-.015.044,24.607,24.607,0,0,1-4.763,8.9A21.56,21.56,0,0,1,305.6,325.23a51.97,51.97,0,0,1-15.745.878,88.213,88.213,0,0,1-18.7-3.892c-6.659-2.079-13.708-4.626-20.949-7.578-7.159-2.918-14.6-6.095-22.108-9.44-7.361-3.274-14.725-6.3-21.894-8.994a208.644,208.644,0,0,0-20.613-6.59,67.373,67.373,0,0,0-17.575-2.376,25.233,25.233,0,0,0-4.431.454q-2.566.483-5.073,1.147a24.024,24.024,0,0,0-4.246,1.552,7.454,7.454,0,0,0-2.342,1.6,1.186,1.186,0,0,0-.237.344,3.914,3.914,0,0,0,1.142,1.359c18.334,16.113,34.262,29.45,47.347,39.637,13.036,10.15,24.058,18.419,32.754,24.573a263.275,263.275,0,0,0,24.963,15.806,3.047,3.047,0,0,1,.849,4.7l-8.577,9.709a2.974,2.974,0,0,1-.375,1.293l-51.281,88.826a3.057,3.057,0,0,1-4.177,1.12Zm960.825-59.281-45.1-64.514a3.044,3.044,0,0,1,.756-4.25l119.44-83.1a3.071,3.071,0,0,1,4.258.756l8.449,12.083a3.048,3.048,0,0,1-.759,4.25l-112.613,78.354a3.4,3.4,0,0,0-.8.7c.042.034.135.271.407.664l24.785,35.443c3.911,5.612,7.4,9.826,13.1,9,2.486-.359,10.045-1.459,14.779-20.137,3.965-18.619,12.89-23.951,30.917-30.917,1.04-.427,4.382-1.8,6.21.82a3.593,3.593,0,0,1,.512,3.128c-.544,1.762-2.2,2.589-3.574,3.108-13.29,5.212-20.774,13.037-22.218,23.243-2.723,21.928-3.967,31.961-15.3,38.378a16.346,16.346,0,0,1-8.1,2.269C1164.756,429.355,1159.42,426.176,1155.155,420.08Zm-55.106-74.45a3.063,3.063,0,0,1-2.118-.993l-9.379-10.28a3.043,3.043,0,0,1,.2-4.311l92.893-84.39h0c17.226-15.643,20.859-15.718,33.522-9.081.8.373,1.564.747,2.305,1.1,5.829,2.833,8.015,3.887,13.046.085,3.028-2.767,5.28-.8,5.9-.127a3.729,3.729,0,0,1,1.159,2.769c-.069,1.5-.979,2.32-2.03,3.274-8.347,6.417-11.1,6.268-17.87,4.907l-1.161-.234c-6.171-1.54-9.565,1.261-19.41,10.3l-3.187,2.913L1102.25,344.84a3.059,3.059,0,0,1-2.057.8A1.417,1.417,0,0,1,1100.049,345.63ZM366.563,268.521,286.9,158.755c-1.6-2.2-2.472-2.13-4.275-.834L267.8,168.63c-8.225,5.941-11.57,14.149-8.947,21.957,2.006,5.985,7.256,10.1,12.7,9.979,22.45-.532,30.985,7.637,37.143,15.352a4.66,4.66,0,0,1,1.479,3.631,4.037,4.037,0,0,1-1.72,2.984c-1.34.969-3.467,1.635-6.027-.722a2.4,2.4,0,0,1-.268-.278c-8.391-9.984-15.032-11.939-32.327-9.452-7.979,1-18.221.812-27.159-9.535-4.011-4.848-5.7-9.8-5.073-14.757.852-6.656,5.827-13.19,15.218-19.973l69.25-50.021c9.284-6.707,17.009-9.357,23.577-8.081,4.934.947,9.125,4.1,12.461,9.369,7.215,11.509,4.14,21.4.659,28.728-7.674,15.467-7.893,22.382-1.088,33.676a4.327,4.327,0,0,1-1.04,6.244c-1.586,1.152-4.216,1.152-6.207-1.588-5.417-8.606-10.46-19.351-3.191-40.242,1.825-5.2-.451-11.465-5.529-15.242-6.585-4.9-15.445-4.263-23.707,1.708l-14.828,10.7c-.529.386-1.437,1.132-1.549,1.847a3.9,3.9,0,0,0,1.008,2.464L382.3,257.151a3.043,3.043,0,0,1-.683,4.265L370.83,269.2a3.058,3.058,0,0,1-4.267-.681Zm649.593-.537-10.711-9.211a3.085,3.085,0,0,1-1.049-2.086,3.045,3.045,0,0,1,.734-2.223l94.948-109.844a3.059,3.059,0,0,1,2.088-1.049,3.01,3.01,0,0,1,2.225.732l55.762,47.972c9.242,7.952,14.311,17.282,14.654,26.986.322,9.15-3.657,18.309-11.211,25.8-26.542,26.41-60.6,19.546-81,1.991-11.07-9.523-17.35-19.153-19.027-29.238l-43.1,49.855a3.068,3.068,0,0,1-4.314.317Zm93.428-103.4-28.8,33.315h0c-11.473,13.273-8.8,27.315,7.957,41.725,16.679,14.344,42.774,11.66,60.7-6.249a28.851,28.851,0,0,0,8.684-21.1,24.792,24.792,0,0,0-9.108-18.234l-34.655-29.814c-1.793-1.54-2.43-1.849-2.647-1.893C1111.714,162.391,1111.133,162.786,1109.584,164.579Zm-148.741,66.3-93.8-41.865a3.053,3.053,0,0,1-1.542-4.033L924.966,52.391a3.064,3.064,0,0,1,4.043-1.542l93.8,41.867a3.05,3.05,0,0,1,1.547,4.026l-.337.756c-2.54,5.663-7.62,12.7-13.6,13.9a8.434,8.434,0,0,1-7.678-2.262l-2.586-2.5C989.7,96.515,973.916,81.216,943.195,67.506a2.549,2.549,0,0,0-1.593-.349c-.159.051-.308.364-.349.456l-19.373,43.2a26.252,26.252,0,0,1,11.77,2.35c7.117,3.182,13.888,9.289,20.432,15.194a20.088,20.088,0,0,0,4.846,3.135c6.612,2.945,15.645,2.645,27.637-.947a4.079,4.079,0,0,1,5.336,2.306c.141.381,1.24,3.6-2.738,5.112-12.871,4.131-22.918,7.344-35.506,1.73a47.012,47.012,0,0,1-8.157-4.614,54.8,54.8,0,0,0-9.223-5.419c-17.2-7.676-24.114,2.8-26.288,7.657l-22.174,49.443a2.821,2.821,0,0,0-.388,1.63c.049.137.349.461,1.176.834l3.033,1.352c29.452,12.3,51.89,14,65.3,15.006l2.427.185a8.646,8.646,0,0,1,7.149,4.209c2.972,4.968,1.283,12.871-1.288,18.612l-.344.761a3.056,3.056,0,0,1-2.791,1.8A3.107,3.107,0,0,1,960.843,230.883ZM465.625,212a3.045,3.045,0,0,1-1.691-1.613l-26.022-58.773a9.978,9.978,0,0,0-2.952-3.8,35.215,35.215,0,0,0-4.36-3.057l-72.234-42.921a3.052,3.052,0,0,1,.327-5.417l17.638-7.776a3.076,3.076,0,0,1,3.323.561c6.907,6.419,13.661,12.263,20.066,17.368,6.461,5.16,12.617,9.806,18.3,13.817,5.641,3.984,10.887,7.4,15.589,10.145,3.265,1.906,6.232,3.548,8.867,4.895.771-2.835,1.557-6.132,2.35-9.843,1.132-5.312,2.137-11.478,2.981-18.319.852-6.881,1.557-14.554,2.094-22.8s.747-17.165.642-26.5a3.061,3.061,0,0,1,1.823-2.828l17.47-7.7a3.093,3.093,0,0,1,3.155.415,3.05,3.05,0,0,1,1.079,2.987L457.226,132.99a35.042,35.042,0,0,0-.678,5.307,9.868,9.868,0,0,0,.834,4.738l26.02,58.776a3.053,3.053,0,0,1-1.564,4.026l-13.871,6.115a3.1,3.1,0,0,1-1.235.259A3.054,3.054,0,0,1,465.625,212ZM828.4,182.594a21.542,21.542,0,0,1-11.612-6.146,51.461,51.461,0,0,1-8.916-12.976A87.718,87.718,0,0,1,801.5,145.5c-1.666-6.742-3.133-14.076-4.36-21.806-1.222-7.71-2.359-15.7-3.37-23.748-1.008-7.976-2.235-15.828-3.645-23.34a206.575,206.575,0,0,0-5.031-21,66.55,66.55,0,0,0-7.071-16.231,25.232,25.232,0,0,0-2.691-3.535c-1.161-1.3-2.369-2.545-3.608-3.736a23.56,23.56,0,0,0-3.531-2.818,7.48,7.48,0,0,0-2.586-1.169,1.242,1.242,0,0,0-.422-.024,3.937,3.937,0,0,0-.571,1.681C760.3,53.794,757.13,74.292,755.19,90.7c-1.945,16.384-3.321,30.067-4.092,40.684a263.2,263.2,0,0,0-.6,29.492,3.051,3.051,0,0,1-1.032,2.447,3,3,0,0,1-2.564.715l-17.136-3.062a3.052,3.052,0,0,1-2.469-3.543l24.6-136.961a3.059,3.059,0,0,1,2.2-2.4l13.405-3.677a21.814,21.814,0,0,1,10.011-.6,17.928,17.928,0,0,1,6.827,2.708,32.383,32.383,0,0,1,5.819,5.117,60.268,60.268,0,0,1,11.39,18.607,156.418,156.418,0,0,1,7.235,23.455c1.9,8.33,3.5,17.028,4.768,25.851s2.508,17.426,3.728,25.8c1.218,8.3,2.6,16.113,4.131,23.214a79.419,79.419,0,0,0,5.7,17.646c.354.6,1.081,1.708,2.072,3.123a43.26,43.26,0,0,0,7.324,8.027,5.984,5.984,0,0,0,2.567,1.474c.256.037.3.007.383-.068a5.917,5.917,0,0,0,.737-2.333c4.165-23.2,7.283-43.228,9.269-59.547,2.008-16.438,3.428-30.214,4.231-40.935.837-12.319,1.117-22.7.837-30.829A3.054,3.054,0,0,1,858.111,32l17.136,3.064a3.053,3.053,0,0,1,2.472,3.543L852.956,176.482a3.046,3.046,0,0,1-2.245,2.413l-12.168,3.14c-.014,0-.031.007-.049.012a28.358,28.358,0,0,1-6.6.844A19.679,19.679,0,0,1,828.4,182.594ZM578.189,177.3a3.771,3.771,0,0,1-1.505-1.784,3.528,3.528,0,0,1,.686-2.855c4.314-6.232,6.2-6.744,11.177-7.283l.842-.1c4.375-.283,6.029-2.884,10.653-11l1.505-2.633,1.122-1.94c-27.51-22.091-37.219-60.738-21.73-94.555a.1.1,0,0,0,.01-.022A75.411,75.411,0,0,1,643.7,11.651a71.856,71.856,0,0,1,35.374,6.481c.081-.142.154-.271.237-.412C687.579,3.4,690.246,2.5,700.233,4.251l1.779.244c4.531.649,6.063.873,8.55-2.638,1.579-2.779,3.86-1.684,4.3-1.44A3.778,3.778,0,0,1,716.366,2.2a3.542,3.542,0,0,1-.686,2.855c-4.319,6.241-6.244,6.742-11.18,7.283l-.842.1c-4.382.288-6.024,2.884-10.65,11l-1.283,2.237c29.455,21.752,40.562,62.5,24.5,96.668-11.658,25.636-34.8,42.111-61.884,44.036-1.625.117-3.26.178-4.892.178a73.755,73.755,0,0,1-32.881-7.9c-.537-.268-1.049-.561-1.579-.842-.422.732-.827,1.432-1.259,2.186-5.378,9.316-8.389,12.954-12.585,13.871-2.257.5-4.848.21-8.335-.4l-1.776-.246c-4.521-.647-6.058-.871-8.549,2.638a3.85,3.85,0,0,1-.834,1.078,2.978,2.978,0,0,1-3.465.361Zm44.739-33.232c10.707,8.12,23.294,12.41,36.067,11.5a45.274,45.274,0,0,0,12.329-2.428c28.481-10.379,40.557-45.678,28.089-82.109a79.9,79.9,0,0,0-17.126-28.994C617.96,153.473,672.507,58.205,622.928,144.067Zm15.3-121.538a46.026,46.026,0,0,0-12.312,2.63c-28.042,10.218-40.44,46.659-28.238,82.958a79.1,79.1,0,0,0,14.291,25.475c62.807-108.8,8.281-13.569,58.966-101.353-9.113-6.258-19.324-9.823-29.582-9.822Q639.79,22.417,638.226,22.528Z"/></g></svg>