<svg id="Lockup" xmlns="http://www.w3.org/2000/svg" width="486.302" height="287.384" viewBox="0 0 486.302 287.384">
  <path id="Path_1" data-name="Path 1" d="M995.672,815.245h32.894c4.352,0,7.156-2.2,7.5-5.892.476-5.095-2.5-7.76-9.011-13.589-3.007-2.788-3.863-6.994-2.545-12.488a2.056,2.056,0,0,0-.194-1.818,1.386,1.386,0,0,0-1.1-.525c-1.226,0-1.53,1.363-1.625,1.787-1.811,7.389-2.1,11.474,3.051,16.948,5.025,5.778,3.662,8.494,3.213,9.387-1.039,2.071-3.222,2.228-5.936,2.232h-18.838a2.647,2.647,0,0,1-.346-.029,1.231,1.231,0,0,1-.056-.454V756.663a1.161,1.161,0,0,0-1.163-1.159h-5.845a1.161,1.161,0,0,0-1.163,1.159v57.423A1.161,1.161,0,0,0,995.672,815.245ZM893.723,811.6a30.624,30.624,0,0,0,3.366,1.714,29.414,29.414,0,0,0,12.3,2.716l.418-.007a29.815,29.815,0,0,0,15-4.423,19.126,19.126,0,0,0,4.508-3.628,1.183,1.183,0,0,0,.137-.19,2.256,2.256,0,0,0-.389-3.076l-.01-.008c-1.6-1.271-3.019.151-4.163,1.294l-.212.214c-3.106,3.31-8.92,5.621-14.138,5.621l-.174,0a.765.765,0,0,0-.111,0c-.67.054-1.351.082-2.02.082a22,22,0,0,1-6.412-.851c-10.01-3.044-16.529-13.61-15.851-25.695a30.819,30.819,0,0,1,.99-6.2c3.172-11.715,13.012-20.29,23.4-20.388l.183,0c5.218,0,11.032,2.311,14.165,5.649l.185.185c1.144,1.144,2.567,2.567,4.173,1.287a2.258,2.258,0,0,0,.389-3.076,6.86,6.86,0,0,0-1.472-1.69c-4.412-4.229-10.722-6.56-17.767-6.56l-.407.007-.417-.007a29.385,29.385,0,0,0-12.277,2.708,30.781,30.781,0,0,0-3.358,1.706,30.329,30.329,0,0,0-.026,52.62Zm200.091,3.641h20.5c11.42,0,20.309-4.879,25.711-14.117a31.208,31.208,0,0,0,2.053-26.178c-5-12.9-15.61-19.445-31.551-19.445h-16.714a1.161,1.161,0,0,0-1.163,1.159v57.423A1.16,1.16,0,0,0,1093.814,815.245Zm7.09-55.876c0-.339.135-.4.4-.4h9.552c7.637,0,17.8,3.529,22.847,20.339a26.936,26.936,0,0,1-4.171,23.789c-4.081,5.465-9.868,8.6-15.876,8.6H1101.3c-.206,0-.4,0-.4-.481ZM837.366,793.518c2.226-.808,4.841-3.668,3.751-6.7-.594-1.78-2.392-2.842-4.808-2.842a8.711,8.711,0,0,0-3.139.57c-6.073,2.311-9.316,9.352-7.714,16.744,1.474,6.856,8.521,14.862,23.534,14.862,9.454,0,17.53-3.159,22.157-8.665a17.92,17.92,0,0,0,3.772-15.171c-2.2-12.384-15.313-14.649-27.856-15.23-11.277-.486-13.543-3.872-13.543-9.179,0-6.207,8.032-9.915,15.8-9.915,5.093,0,9.493,1.561,12.072,4.281a8.158,8.158,0,0,1,2.331,6.283c-.193,2.513.655,3.818,1.4,4.469a3.808,3.808,0,0,0,3.363.775c2.494-.5,3.7-2.553,3.224-5.516-1.446-8.386-10.025-13.6-22.39-13.6-13.036,0-23.642,5.929-23.642,13.217,0,7.96,6.76,12.029,21.279,12.807,10.39.5,16.623,4.785,18.523,12.725a15.455,15.455,0,0,1-2.8,13.277c-3.1,3.9-7.963,6.052-13.69,6.052a17.117,17.117,0,0,1-12.807-5.2c-2.154-2.329-3.427-5.271-3.246-7.463C833.1,798.6,833.872,794.962,837.366,793.518ZM1043.9,815.245h40.675a1.16,1.16,0,0,0,1.163-1.158v-.329c0-2.472-.664-5.578-2.529-6.882a3.388,3.388,0,0,0-3.223-.361l-.906.323a77.3,77.3,0,0,1-26.04,5.1h-1.319c-.567,0-.731-.034-.731-.809v-21.41c0-2.119.81-7.045,8.307-7.045a21.912,21.912,0,0,1,4.22.47,18.671,18.671,0,0,0,3.685.351c5.444,0,8.544-2.775,12.516-6.33a2.011,2.011,0,0,0,.517-.768,1.381,1.381,0,0,0-.353-1.443,1.573,1.573,0,0,0-2.24.025c-3.76,3.234-6.985,4.8-9.861,4.8a7.986,7.986,0,0,1-2.276-.354c-3.322-1.077-6.757-2.19-9.829-2.19a10.3,10.3,0,0,0-4.685,1.077V759.533c0-.187,0-.4.731-.4a71.826,71.826,0,0,1,26.927,4.947l1.351.488a3.3,3.3,0,0,0,3.1-.415c1.949-1.387,2.64-4.724,2.64-7.162v-.328a1.16,1.16,0,0,0-1.163-1.159H1043.9a1.161,1.161,0,0,0-1.163,1.159v57.423A1.161,1.161,0,0,0,1043.9,815.245Zm-98.127-15.922a5.962,5.962,0,0,0,4.373,1.668,17.542,17.542,0,0,0,7.577-2.214l7.476-3.535a9.281,9.281,0,0,1,1.044-.439q.583-.144,1.277-.29a4.338,4.338,0,0,1,2.272.046.43.43,0,0,1,.3.265l8.66,19.655a1.163,1.163,0,0,0,1.064.693h6.325a1.159,1.159,0,0,0,1.065-1.625L961.755,755.92a1.163,1.163,0,0,0-1.064-.693h-.9a1.163,1.163,0,0,0-1.064.693L933.34,813.549a1.159,1.159,0,0,0,1.066,1.624h6.778a1.163,1.163,0,0,0,1.146-.954q.375-2.09.748-4c.245-1.243.545-2.561.891-3.916q.523-2.06,1.129-4.385Q945.414,800.7,945.774,799.323Zm2.9-8.689c.76-2.016,1.68-4.339,2.738-6.908s2.249-5.394,3.642-8.608c1.034-2.385,2.131-4.845,3.273-7.342l9.388,21.454c-2.527-1.043-5.254-.72-8.2.7q-3.7,1.731-5.885,2.782t-3.379,1.607c-.765.358-1.346.611-1.721.752a3,3,0,0,1-.839.157.742.742,0,0,1-.569-.18l-.023-.018C947.445,793.974,947.973,792.5,948.674,790.634Zm13.539,38.537H945.5a1.161,1.161,0,0,0-1.163,1.159v57.423a1.161,1.161,0,0,0,1.163,1.159H966c11.42,0,20.309-4.88,25.711-14.117a31.2,31.2,0,0,0,2.051-26.178C988.768,835.714,978.154,829.172,962.213,829.172Zm19,47.593c-4.081,5.466-9.867,8.6-15.874,8.6H952.989c-.206,0-.4,0-.4-.482V833.036c0-.338.135-.4.4-.4h9.554c7.636,0,17.8,3.528,22.846,20.339A26.932,26.932,0,0,1,981.216,876.765Zm63.266-24.115c3.172-11.715,13.012-20.29,23.4-20.388l.183,0c5.219,0,11.032,2.311,14.165,5.648l.186.185c1.145,1.144,2.568,2.567,4.173,1.287a2.257,2.257,0,0,0,.389-3.076,6.857,6.857,0,0,0-1.473-1.689c-4.412-4.23-10.721-6.559-17.767-6.559l-.406.006-.418-.006a29.378,29.378,0,0,0-12.277,2.708,30.811,30.811,0,0,0-3.358,1.706,30.329,30.329,0,0,0-.026,52.621,30.713,30.713,0,0,0,3.365,1.712,29.414,29.414,0,0,0,12.3,2.716l.419-.008a29.816,29.816,0,0,0,15-4.422,19.109,19.109,0,0,0,4.507-3.628,1.111,1.111,0,0,0,.138-.19,2.257,2.257,0,0,0-.389-3.077l-.01-.008c-1.6-1.272-3.019.151-4.163,1.295l-.212.213c-3.106,3.31-8.919,5.62-14.138,5.62l-.183,0a.993.993,0,0,0-.1,0c-.677.054-1.357.081-2.021.081a22,22,0,0,1-6.412-.852c-10.011-3.044-16.529-13.609-15.851-25.694A30.843,30.843,0,0,1,1044.482,852.649ZM1145.639,833c-2.7-4.084-6.4-4.07-14.492-4.052l-2.042,0c-1.683,0-3.139,0-3.139,1.651s1.456,1.652,3.139,1.652c4.98,0,6.345.93,7.688,3.541.666,1.327,2.258,6.129-5.232,12.22-.474.4-1.151.958-1.954,1.617-3.059,2.505-8.178,6.7-10.857,9.833a1.106,1.106,0,0,0-.084.111.392.392,0,0,1-.7,0,1.162,1.162,0,0,0-.072-.1c-3.4-4.078-10.617-9.819-12.84-11.479-7.471-6.074-5.878-10.875-5.216-12.192,1.348-2.622,2.726-3.552,7.775-3.552,1.772,0,3.3,0,3.3-1.652s-1.531-1.651-3.3-1.651l-2.059,0c-8.08-.017-11.765-.032-14.547,4.037l-.018.028a6.7,6.7,0,0,0-.669,5.107c.536,2.388,2.612,7.133,10.534,12.106,6.622,3.839,13.748,9.733,13.748,13.6v23.707a1.161,1.161,0,0,0,1.163,1.159h5.188a1.161,1.161,0,0,0,1.162-1.159V863.832c0-3.772,6.913-9.7,13.787-13.625,7.928-5.019,9.965-9.784,10.473-12.177A6.537,6.537,0,0,0,1145.639,833ZM1034.18,819.932c-.346,0-1.466.128-1.492,1.757-.236,2.468-1.207,2.854-3.529,3.777-.3.12-.616.245-.937.377-5.3,1.917-6.239,2.991-6.239,12.147v49.548a1.161,1.161,0,0,0,1.163,1.159h5.516a1.161,1.161,0,0,0,1.163-1.159V838.647l-.006-1.7c-.028-5.3.061-7.039,2.17-8.442l.379-.278c2.189-1.6,2.963-2.357,3.3-6.382,0-.032,0-.063,0-.1C1035.67,821.2,1035.67,819.932,1034.18,819.932Zm-182.523,7.793a1.165,1.165,0,0,0-1.064-.692h-.953a1.164,1.164,0,0,0-1.065.693l-26.748,60.729a1.159,1.159,0,0,0,1.065,1.624h7.144a1.162,1.162,0,0,0,1.145-.955q.395-2.2.79-4.212c.259-1.31.574-2.7.939-4.129q.552-2.172,1.19-4.622.347-1.339.742-2.847a6.2,6.2,0,0,0,4.64,1.819,18.433,18.433,0,0,0,7.958-2.326l7.879-3.726a9.772,9.772,0,0,1,1.113-.467q.615-.153,1.346-.306a4.62,4.62,0,0,1,2.427.05.514.514,0,0,1,.36.314l9.126,20.714a1.164,1.164,0,0,0,1.065.693h6.666a1.159,1.159,0,0,0,1.064-1.626ZM849.382,863.6q-3.895,1.823-6.2,2.93t-3.561,1.695c-.815.38-1.428.648-1.819.794a3.2,3.2,0,0,1-.9.169.86.86,0,0,1-.645-.2c-.023-.018-.043-.034-.058-.048.361-1.114.923-2.685,1.671-4.675.8-2.126,1.771-4.576,2.886-7.282s2.367-5.676,3.84-9.073c1.107-2.553,2.283-5.189,3.507-7.864l10.012,22.879C855.424,861.756,852.525,862.079,849.382,863.6Zm84.861-34.285h-7.1a1.159,1.159,0,0,0-1.136,1.4c.7,3.24,1.334,7.425,1.889,12.434.455,4.384.877,10.012,1.254,16.728s.572,14.982.572,24.555a2.284,2.284,0,0,1-.144,1.039c-.1.114-.371.26-1.4-.329a17,17,0,0,1-1.86-1.248,17.211,17.211,0,0,1-1.681-1.462c-.512-.51-.886-.906-1.064-1.115A32.547,32.547,0,0,1,920,874.63c-1.129-2.749-2.251-5.785-3.335-9.023q-1.642-4.908-3.36-10.083c-1.148-3.455-2.419-6.826-3.778-10.02a63.648,63.648,0,0,0-4.591-8.876,24.522,24.522,0,0,0-5.9-6.624,13.213,13.213,0,0,0-2.688-1.626,8.187,8.187,0,0,0-6.846.36l-5.117,2.436a1.157,1.157,0,0,0-.662,1.045v56.7a1.161,1.161,0,0,0,1.163,1.159H892a1.16,1.16,0,0,0,1.133-1.422,106.95,106.95,0,0,1-1.886-11.884c-.455-4.287-.891-9.877-1.293-16.615s-.61-15.176-.61-25.122c0-.821.178-.821.366-.821a3.121,3.121,0,0,1,1.156.292,9.757,9.757,0,0,1,1.635.884c.586.39,1.166.809,1.725,1.244a10.172,10.172,0,0,1,1.346,1.237,27.138,27.138,0,0,1,4.026,6.021,84.622,84.622,0,0,1,3.539,8.069c1.113,2.924,2.172,5.988,3.149,9.106,1,3.205,2.036,6.329,3.067,9.282,1.046,3,2.164,5.838,3.321,8.426a35.718,35.718,0,0,0,3.842,6.737,21.23,21.23,0,0,0,4.5,4.548,8.715,8.715,0,0,0,5.058,1.616,10,10,0,0,0,3.983-.936l.017-.007,4.658-2.13a1.158,1.158,0,0,0,.678-1.053V830.47A1.161,1.161,0,0,0,934.243,829.312Z" transform="translate(-662.944 -604.293)" fill="#75c5d6"/>
  <path id="Path_2" data-name="Path 2" d="M508.083,219.768v-.33c0-2.483-.668-5.6-2.542-6.914a3.406,3.406,0,0,0-3.238-.363l-.908.324a77.665,77.665,0,0,1-26.162,5.129h-1.325c-.57,0-.735-.035-.735-.814V195.292c0-2.129.813-7.078,8.345-7.078a22.065,22.065,0,0,1,4.24.472,18.761,18.761,0,0,0,3.7.353c5.47,0,8.584-2.787,12.528-6.315.016-.014.032-.029.046-.043a1.474,1.474,0,0,0,.166-2.222,1.548,1.548,0,0,0-1.234-.45,1.735,1.735,0,0,0-1.045.5c-3.766,3.232-7,4.8-9.881,4.8a8,8,0,0,1-2.286-.357c-3.338-1.081-6.79-2.2-9.874-2.2a10.347,10.347,0,0,0-4.706,1.082V164.963c0-.189,0-.4.735-.4a72.19,72.19,0,0,1,27.05,4.969c.466.17.913.333,1.358.491a3.321,3.321,0,0,0,3.114-.416c1.958-1.394,2.653-4.748,2.653-7.2v-.33a1.166,1.166,0,0,0-1.168-1.164H466.051a1.166,1.166,0,0,0-1.168,1.164v57.689a1.166,1.166,0,0,0,1.168,1.164h40.864A1.166,1.166,0,0,0,508.083,219.768Zm141.539-29.483a14.341,14.341,0,0,1,1.107,1.831,4.041,4.041,0,0,1,.472,1.9v25.715a1.166,1.166,0,0,0,1.168,1.163h6.077a1.166,1.166,0,0,0,1.168-1.163V194.012a4.031,4.031,0,0,1,.471-1.9,14.356,14.356,0,0,1,1.115-1.841l19.507-27.358a1.163,1.163,0,0,0-.952-1.838H672.1a1.169,1.169,0,0,0-1.074.705c-1.484,3.448-3.011,6.678-4.54,9.6s-3.034,5.623-4.469,8.013c-1.419,2.366-2.789,4.463-4.07,6.232-.9,1.249-1.745,2.347-2.505,3.281-.757-.929-1.6-2.027-2.5-3.282-1.273-1.752-2.642-3.849-4.071-6.232s-2.931-5.073-4.468-8.013c-1.53-2.924-3.056-6.154-4.539-9.6a1.168,1.168,0,0,0-1.074-.706h-7.727a1.163,1.163,0,0,0-.952,1.838Zm-314.029-1.525a1.279,1.279,0,0,0,.019.148c.215,1.057.795,1.593,1.724,1.593a1.564,1.564,0,0,0,1.215-.542,1.8,1.8,0,0,0,.364-1.476c-.18-3.9-1.015-8.484-8.358-13.534a5.447,5.447,0,0,1-1.776-6.215c.987-3.141,4-5.017,8.059-5.017h7.28c.907,0,1.229.2,1.229,1.308v53.816A1.166,1.166,0,0,0,346.519,220h5.294a1.166,1.166,0,0,0,1.168-1.163V165.025c0-1.111.323-1.308,1.231-1.308h7.279c4.078,0,7.1,1.866,8.081,4.992a5.539,5.539,0,0,1-1.8,6.241c-7.206,5.016-8.091,9.634-8.355,13.568,0,.025,0,.052,0,.078,0,1.317.794,1.905,1.581,1.905a1.685,1.685,0,0,0,1.748-1.765c.456-5.2,2.155-7.381,8.244-10.575,2.824-1.544,6.112-4,6.477-9.354a7.51,7.51,0,0,0-1.809-5.875c-1.814-1.926-4.905-2.862-9.447-2.862h-34c-4.594,0-7.713.94-9.534,2.872a7.523,7.523,0,0,0-1.8,5.89c.457,5.384,3.7,7.813,6.493,9.338C333.53,181.4,335.222,183.581,335.593,188.759Zm122.9,4.361a16.557,16.557,0,0,0-.853-8.106l-8.692-24.308a1.167,1.167,0,0,0-1.1-.773h-7.017a1.173,1.173,0,0,0-.957.5,1.16,1.16,0,0,0-.141,1.065l9.323,25.644a16.863,16.863,0,0,1,.783,7.921,20.8,20.8,0,0,1-2.681,7.713l-7.395,12.6c-.123.173-.2.173-.289.173-.313,0-.369-.08-.423-.205l-19.045-54.62a1.167,1.167,0,0,0-1.1-.782h-6.937a1.172,1.172,0,0,0-.952.489,1.16,1.16,0,0,0-.151,1.057L422.484,194.8l-12.694,20.64c-.126.181-.207.181-.292.181a.737.737,0,0,1-.353-.091.3.3,0,0,1-.04-.1l-.018-.06L390.269,160.72a1.168,1.168,0,0,0-1.1-.786h-7.5a1.164,1.164,0,0,0-1.1,1.554L402.336,222.5a1.168,1.168,0,0,0,1.1.774h5.981a1.168,1.168,0,0,0,.957-.5l14.66-20.885,7.525,20.616a1.169,1.169,0,0,0,1.1.766h5.422a1.167,1.167,0,0,0,.957-.5l15.477-22.094A17.871,17.871,0,0,0,458.5,193.121Zm76.569-10.311c1.1,2.894,2.15,5.929,3.118,9.019,1,3.177,2.018,6.271,3.038,9.194,1.036,2.975,2.143,5.783,3.29,8.347a35.315,35.315,0,0,0,3.808,6.676,21.029,21.029,0,0,0,4.459,4.509,8.652,8.652,0,0,0,5.019,1.6,9.938,9.938,0,0,0,3.953-.929l.016-.007,4.615-2.11a1.164,1.164,0,0,0,.68-1.058V161.516a1.166,1.166,0,0,0-1.168-1.163h-7.036a1.164,1.164,0,0,0-1.141,1.408c.691,3.207,1.321,7.353,1.871,12.314.451,4.345.869,9.919,1.242,16.568s.567,14.839.567,24.321a2.281,2.281,0,0,1-.139,1.018c-.039.046-.067.079-.207.079a2.458,2.458,0,0,1-1.155-.409,17.791,17.791,0,0,1-3.5-2.681c-.49-.489-.852-.871-1.074-1.135a32.284,32.284,0,0,1-3.513-6.586c-1.117-2.72-2.228-5.726-3.3-8.936q-1.627-4.862-3.328-9.987c-1.137-3.424-2.4-6.763-3.741-9.926a63.148,63.148,0,0,0-4.549-8.794,24.316,24.316,0,0,0-5.844-6.566,13.115,13.115,0,0,0-2.665-1.612,7.237,7.237,0,0,0-2.885-.587,8.745,8.745,0,0,0-3.909.943l-5.069,2.413a1.163,1.163,0,0,0-.664,1.05v56.162a1.166,1.166,0,0,0,1.168,1.164h7.037a1.166,1.166,0,0,0,1.137-1.429,105.91,105.91,0,0,1-1.867-11.768c-.451-4.249-.883-9.785-1.282-16.456s-.6-15.031-.6-24.882c0-.614.141-.766.141-.767.03-.019.4-.132,1.343.258a9.68,9.68,0,0,1,1.616.873c.58.386,1.156.8,1.708,1.232a10,10,0,0,1,1.331,1.223,26.854,26.854,0,0,1,3.984,5.96A83.54,83.54,0,0,1,535.065,182.81Zm43.183-3.713c6.167,3.234,7.859,5.411,8.23,10.59a1.163,1.163,0,0,0,.02.148c.214,1.056.794,1.593,1.724,1.593a1.563,1.563,0,0,0,1.215-.543,1.8,1.8,0,0,0,.364-1.475c-.182-3.9-1.015-8.485-8.358-13.534a5.448,5.448,0,0,1-1.776-6.215c.987-3.141,4-5.017,8.059-5.017H595c.908,0,1.23.2,1.23,1.309v53.816a1.166,1.166,0,0,0,1.169,1.164H602.7a1.166,1.166,0,0,0,1.169-1.164V165.952c0-1.111.323-1.309,1.231-1.309h7.279c4.078,0,7.1,1.867,8.081,4.991a5.541,5.541,0,0,1-1.8,6.242c-7.206,5.017-8.091,9.634-8.355,13.568,0,.026,0,.052,0,.078,0,1.316.794,1.905,1.581,1.905a1.685,1.685,0,0,0,1.747-1.766c.457-5.2,2.156-7.381,8.245-10.574,2.824-1.543,6.112-4,6.477-9.353a7.515,7.515,0,0,0-1.809-5.876c-1.814-1.926-4.906-2.862-9.449-2.862h-34c-4.595,0-7.713.939-9.534,2.871a7.523,7.523,0,0,0-1.8,5.891C572.212,175.142,575.455,177.572,578.247,179.1ZM313.466,234.99H306.43a1.169,1.169,0,0,0-.908.433,1.157,1.157,0,0,0-.233.975c.691,3.209,1.321,7.354,1.871,12.314.451,4.342.869,9.917,1.242,16.568s.567,14.838.567,24.322a2.284,2.284,0,0,1-.139,1.018c-.039.046-.067.079-.207.079a2.464,2.464,0,0,1-1.154-.409,16.727,16.727,0,0,1-1.841-1.236,17.013,17.013,0,0,1-1.664-1.445c-.49-.488-.851-.87-1.075-1.135a32.3,32.3,0,0,1-3.512-6.586c-1.117-2.72-2.228-5.726-3.3-8.936q-1.627-4.862-3.328-9.987c-1.137-3.422-2.4-6.761-3.741-9.926a63.13,63.13,0,0,0-4.549-8.794,24.307,24.307,0,0,0-5.844-6.566,13.1,13.1,0,0,0-2.665-1.612,7.246,7.246,0,0,0-2.885-.587,8.738,8.738,0,0,0-3.909.944l-5.069,2.412a1.163,1.163,0,0,0-.664,1.05v56.161a1.166,1.166,0,0,0,1.168,1.164h7.036a1.165,1.165,0,0,0,1.139-1.428,106,106,0,0,1-1.868-11.769c-.451-4.245-.882-9.782-1.282-16.457s-.6-15.033-.6-24.881a1.33,1.33,0,0,1,.142-.767c.03-.019.4-.132,1.343.258a9.627,9.627,0,0,1,1.616.873c.583.387,1.157.8,1.708,1.231a10.135,10.135,0,0,1,1.331,1.223,26.855,26.855,0,0,1,3.984,5.959,83.679,83.679,0,0,1,3.5,7.992c1.1,2.893,2.15,5.928,3.118,9.019,1,3.178,2.017,6.272,3.038,9.194,1.036,2.975,2.144,5.784,3.29,8.346a35.315,35.315,0,0,0,3.808,6.677,21.051,21.051,0,0,0,4.459,4.508,8.648,8.648,0,0,0,5.019,1.6,9.928,9.928,0,0,0,3.954-.928l.016-.008,4.615-2.11a1.163,1.163,0,0,0,.68-1.058V236.154A1.166,1.166,0,0,0,313.466,234.99Zm-55.3-6.926a1.415,1.415,0,0,0-1.688.138,2.268,2.268,0,0,0-.462.576c-1.331,1.793-2.2,1.651-4.508,1.279-.29-.047-.591-.1-.908-.142l-.013,0c-2.275-.441-3.919-.76-5.617.2-1.47.832-2.84,2.536-5.239,6.515l-.459.761a28.405,28.405,0,0,0-12.248-2.8,29.968,29.968,0,0,0-26.086,15.431.024.024,0,0,1,0,.008,31.45,31.45,0,0,0-2.822,23.368,30.771,30.771,0,0,0,10.009,15.7l-.366.607q-.43.714-.811,1.357c-2.49,4.181-3.385,5.51-5.628,5.615l-.058,0-.435.041c-2.531.234-3.519.472-5.731,3.535-.019.026-.036.053-.054.08-.3.492-.914,1.518.346,2.273a1.465,1.465,0,0,0,.756.216,1.428,1.428,0,0,0,.933-.354,2.271,2.271,0,0,0,.462-.576c1.331-1.793,2.2-1.652,4.508-1.279.29.047.591.1.908.142l.013,0c2.276.441,3.919.76,5.617-.2,1.47-.832,2.84-2.537,5.239-6.515l.56-.929a28.746,28.746,0,0,0,12.478,2.971,29.128,29.128,0,0,0,25.753-15.678,31.393,31.393,0,0,0-7.085-38.994l.269-.447q.43-.714.811-1.357c2.49-4.181,3.385-5.51,5.628-5.615l.059,0,.435-.041c2.531-.234,3.519-.472,5.731-3.535.02-.026.037-.053.054-.08C258.806,229.845,259.424,228.82,258.164,228.064Zm-46.418,55.014a31.1,31.1,0,0,1-5.764-11.6c-3.823-14.751,2.144-28.865,13.584-32.132a18.416,18.416,0,0,1,4.974-.7,20.166,20.166,0,0,1,11.6,3.941Zm35.736-23.459a31.507,31.507,0,0,1-.96,20.154c-2.492,5.909-6.946,10.044-12.542,11.643a18.092,18.092,0,0,1-4.974.614,20.6,20.6,0,0,1-11.7-3.765l24.357-40.432A31.8,31.8,0,0,1,247.481,259.619Zm173.265-24.436H391.463a1.167,1.167,0,0,0-1.169,1.164v57.608a1.167,1.167,0,0,0,1.169,1.163h5.625a1.166,1.166,0,0,0,1.169-1.163V267.7c3.127,2.636,7.541,3.925,13.39,3.925a25.9,25.9,0,0,0,14.807-4.691c5.363-3.851,8.483-9.669,9.023-16.822a13.78,13.78,0,0,0-3.329-10.624C429.527,236.673,425.585,235.183,420.747,235.183Zm2.274,27.541a15.535,15.535,0,0,1-11.456,5.177c-8.83,0-13.307-3.545-13.307-10.538V239.89a4.1,4.1,0,0,1,.107-1.283,4.185,4.185,0,0,1,1.287-.107h18.2a9.953,9.953,0,0,1,7.525,3.142,11.494,11.494,0,0,1,2.892,8.63A20.546,20.546,0,0,1,423.02,262.724Zm134.15-23.147c2.49-4.181,3.385-5.509,5.627-5.614l.06,0,.434-.041c2.532-.235,3.521-.471,5.732-3.534.019-.027.036-.053.054-.081.3-.492,8.393-1.517,7.132-2.273h0c-.294-.176-1.3-.634-2.147.712-1.332,1.8-9.684,1.656-11.989,1.282-.29-.047-.591-.1-.908-.142l-.015,0c-2.275-.441-3.918-.76-5.616.2-1.47.832-2.84,2.537-5.239,6.515l-.458.76a28.409,28.409,0,0,0-12.247-2.8A29.967,29.967,0,0,0,511.5,249.986a.029.029,0,0,1,0,.008,31.452,31.452,0,0,0-2.822,23.368,30.78,30.78,0,0,0,10.01,15.7l-.366.607q-.43.713-.811,1.356c-2.49,4.182-3.385,5.51-5.628,5.615l-.059,0-.434.041c-2.532.234-3.52.471-5.732,3.535-.019.026-.037.052-.054.08a2.156,2.156,0,0,0-.4.982,1.332,1.332,0,0,0,.752,1.291,1.464,1.464,0,0,0,.755.215,1.429,1.429,0,0,0,.933-.354,2.284,2.284,0,0,0,.462-.576c1.331-1.793,2.2-1.653,4.508-1.279.29.046.591.095.908.142l.013,0c2.276.441,3.919.76,5.617-.2,1.47-.832,2.84-2.537,5.239-6.516l.56-.929a28.756,28.756,0,0,0,12.478,2.972,29.127,29.127,0,0,0,25.753-15.679,31.394,31.394,0,0,0-7.085-38.994l.269-.447Q556.789,240.221,557.171,239.578Zm-34.858,43.467a31.111,31.111,0,0,1-5.764-11.6c-3.823-14.752,2.144-28.866,13.585-32.133a18.414,18.414,0,0,1,4.973-.7,20.162,20.162,0,0,1,11.6,3.942Zm35.736-23.459a31.5,31.5,0,0,1-.961,20.154c-2.492,5.909-6.946,10.044-12.541,11.643a18.092,18.092,0,0,1-4.974.613,20.609,20.609,0,0,1-11.706-3.764L552.224,247.8A31.777,31.777,0,0,1,558.048,259.585Zm55.708-24.4h-34c-4.594,0-7.713.939-9.534,2.872a7.521,7.521,0,0,0-1.8,5.89c.457,5.384,3.7,7.814,6.493,9.338,6.167,3.234,7.859,5.412,8.23,10.591a1.25,1.25,0,0,0,.02.147c.214,1.057.795,1.594,1.724,1.594a1.565,1.565,0,0,0,1.215-.542,1.8,1.8,0,0,0,.364-1.476c-.18-3.9-1.015-8.485-8.358-13.534a5.448,5.448,0,0,1-1.776-6.215c.987-3.141,4-5.016,8.059-5.016h7.28c.907,0,1.229.2,1.229,1.308v53.816a1.166,1.166,0,0,0,1.169,1.163h5.294a1.166,1.166,0,0,0,1.168-1.163V240.139c0-1.111.323-1.308,1.231-1.308h7.279c4.078,0,7.1,1.866,8.081,4.992a5.539,5.539,0,0,1-1.8,6.241c-7.206,5.017-8.091,9.633-8.355,13.567,0,.026,0,.052,0,.078,0,1.316.794,1.905,1.581,1.905a1.685,1.685,0,0,0,1.748-1.765c.456-5.2,2.155-7.381,8.244-10.575,2.824-1.543,6.113-4,6.477-9.353a7.509,7.509,0,0,0-1.809-5.875C621.39,236.119,618.3,235.183,613.757,235.183Zm-247.2.146H325.7a1.166,1.166,0,0,0-1.168,1.163v57.69a1.166,1.166,0,0,0,1.168,1.163H366.56a1.166,1.166,0,0,0,1.169-1.163v-.33c0-2.483-.668-5.6-2.542-6.915a3.4,3.4,0,0,0-3.238-.363l-.912.326a77.645,77.645,0,0,1-26.159,5.128h-1.324c-.57,0-.735-.035-.735-.814v-21.51c0-2.128.813-7.078,8.345-7.078a22.026,22.026,0,0,1,4.24.472,18.8,18.8,0,0,0,3.7.352c5.47,0,8.585-2.787,12.528-6.316.016-.013.03-.028.045-.043a1.474,1.474,0,0,0,.166-2.223,1.6,1.6,0,0,0-1.095-.455,1.7,1.7,0,0,0-1.185.5c-3.764,3.232-7,4.8-9.879,4.8a8.02,8.02,0,0,1-2.286-.356c-3.338-1.081-6.789-2.2-9.874-2.2a10.348,10.348,0,0,0-4.707,1.082V239.377c0-.188,0-.4.735-.4a72.19,72.19,0,0,1,27.049,4.968c.467.17.914.333,1.359.491a3.321,3.321,0,0,0,3.114-.416c1.958-1.393,2.653-4.748,2.653-7.2v-.33A1.166,1.166,0,0,0,366.56,235.329ZM677.9,272.077c-.968-5.448-4.069-9.306-9.482-11.794-4.369-2.01-10.248-3.124-18.5-3.506-11.33-.488-13.607-3.889-13.607-9.221,0-6.235,8.07-9.962,15.872-9.962,5.116,0,9.538,1.568,12.128,4.3a8.2,8.2,0,0,1,2.343,6.312c-.195,2.524.656,3.835,1.4,4.489a3.824,3.824,0,0,0,3.38.779c2.505-.5,3.717-2.565,3.238-5.542a14.507,14.507,0,0,0-7.451-10.214c-3.895-2.253-9.1-3.444-15.043-3.444-13.1,0-23.751,5.957-23.751,13.279,0,8,6.791,12.084,21.378,12.866,10.437.506,16.7,4.807,18.608,12.784a15.524,15.524,0,0,1-2.812,13.339c-3.115,3.921-8,6.081-13.753,6.081a17.2,17.2,0,0,1-12.867-5.221c-2.158-2.334-3.436-5.281-3.258-7.515.171-1.513.947-5.14,4.474-6.61,2.231-.824,4.832-3.687,3.743-6.725-.6-1.788-2.4-2.856-4.831-2.856a8.76,8.76,0,0,0-3.154.573c-6.1,2.322-9.36,9.4-7.749,16.822a17.264,17.264,0,0,0,7.059,10.305c4.248,3.026,9.984,4.626,16.584,4.626,9.5,0,17.611-3.173,22.261-8.705A18,18,0,0,0,677.9,272.077ZM462.883,226.035c-.347,0-1.471.128-1.5,1.764-.237,2.48-8.69,2.867-11.022,3.794-.3.118-.6.24-.924.373l-.018.007c-2.344.849-4.037,1.462-5.06,3.271-.892,1.576-1.208,3.914-1.208,8.933v49.778a1.166,1.166,0,0,0,1.169,1.163h5.542a1.166,1.166,0,0,0,1.168-1.163V244.836c0-.6,0-1.17-.006-1.711-.028-5.322.062-7.072,2.133-8.447.016-.011.032-.022.046-.034l.38-.278c2.2-1.607,10.456-2.369,10.793-6.411,0-.032,0-.065,0-.1C464.382,226.035,463.332,226.035,462.883,226.035Zm33.59,49.513c-3.021-2.8-3.88-7.026-2.558-12.546a2.057,2.057,0,0,0-.195-1.826,1.387,1.387,0,0,0-1.1-.527c-1.231,0-1.536,1.367-1.631,1.794-1.817,7.417-2.106,11.52,3.079,17.044,5.031,5.793,3.664,8.519,3.214,9.415-1.037,2.066-3.193,2.242-5.906,2.242H472.14a1.073,1.073,0,0,1-.351-.042,1.338,1.338,0,0,1-.052-.444V236.265a1.166,1.166,0,0,0-1.168-1.164H464.7a1.166,1.166,0,0,0-1.168,1.164v57.69a1.166,1.166,0,0,0,1.168,1.163h33.3c4.372,0,7.189-2.213,7.532-5.919C506,284.08,503.013,281.4,496.474,275.548Z" transform="translate(-194.62 -158.844)" fill="#fff"/>
</svg>
